<svg width="24" height="17" viewBox="0 0 24 17" fill="none" xmlns="http://www.w3.org/2000/svg">
<path d="M19.2418 1.20967C19.1065 0.952045 18.8398 0.814795 18.5672 0.81892C18.2597 0.811795 17.9646 0.989545 17.848 1.29442L16.7402 4.22129C16.5943 4.60792 16.7893 5.03955 17.176 5.18579C17.2626 5.21917 17.3522 5.23492 17.4403 5.23492C17.7426 5.23492 18.0272 5.05042 18.1405 4.75117L18.6745 3.3393L20.2397 6.30142C19.7136 6.13042 19.1537 6.03554 18.5717 6.03554C16.2936 6.03554 14.3432 7.45379 13.5475 9.45217C12.1127 8.87542 10.9896 9.19192 10.4252 9.44954C9.62871 7.45267 7.67909 6.03554 5.40134 6.03554C4.80771 6.03554 4.23846 6.13492 3.70446 6.31192L5.27496 3.33892L5.80934 4.7508C5.92259 5.04967 6.20759 5.23454 6.50946 5.23454C6.59721 5.23454 6.68684 5.21879 6.77384 5.18542C7.16009 5.03917 7.35509 4.60755 7.20921 4.22092L6.10146 1.29405C5.98596 0.989545 5.69159 0.811795 5.38409 0.818545C5.11071 0.81367 4.84409 0.951295 4.70759 1.2093L0.803086 8.60017C0.800086 8.60617 0.800836 8.61217 0.797836 8.61779C0.290086 9.44205 -0.00878906 10.408 -0.00878906 11.4457C-0.00878906 14.4288 2.41784 16.8554 5.40096 16.8554C8.38446 16.8554 10.8111 14.4288 10.8111 11.4457C10.8111 11.2762 10.801 11.1089 10.7856 10.9428C10.8253 10.924 10.8666 10.9098 10.9037 10.8832C10.9131 10.8775 11.8116 10.2749 13.189 10.9259C13.1728 11.0973 13.1627 11.2705 13.1627 11.4457C13.1627 14.4288 15.5893 16.8554 18.5721 16.8554C21.5556 16.8554 23.9822 14.4288 23.9822 11.4457C23.9822 10.3184 23.6346 9.27067 23.0421 8.40292L19.2418 1.20967ZM5.40059 15.3588C3.24246 15.3588 1.48709 13.603 1.48709 11.4453C1.48709 9.28754 3.24246 7.53217 5.40059 7.53217C7.55834 7.53217 9.31409 9.28754 9.31409 11.4453C9.31409 13.603 7.55834 15.3588 5.40059 15.3588ZM18.5713 15.3588C16.4136 15.3588 14.6582 13.603 14.6582 11.4453C14.6582 9.28754 16.4136 7.53217 18.5713 7.53217C19.8985 7.53217 21.0688 8.19929 21.7772 9.21179L21.823 9.29917C21.8391 9.33029 21.8623 9.35392 21.8822 9.38167C22.2587 9.98242 22.4848 10.6859 22.4848 11.4449C22.4852 13.603 20.7291 15.3588 18.5713 15.3588Z" fill="white"/>
</svg>
