<svg width="22" height="24" viewBox="0 0 22 24" fill="none" xmlns="http://www.w3.org/2000/svg">
<path opacity="0.944" fill-rule="evenodd" clip-rule="evenodd" d="M10.3525 1.28041C13.0413 1.2651 14.8422 2.49587 15.7553 4.97272C16.3337 7.59039 15.4785 9.60526 13.1897 11.0174C10.8239 12.066 8.72111 11.6988 6.88144 9.91566C5.62564 8.45315 5.24332 6.78565 5.73448 4.91317C6.53814 2.77933 8.07748 1.5684 10.3525 1.28041ZM10.3525 2.59059C11.9884 2.50912 13.2461 3.14436 14.1254 4.4963C15.0881 6.57721 14.6555 8.31414 12.8275 9.70721C11.0306 10.6365 9.39064 10.428 7.90767 9.0819C6.76023 7.70795 6.55903 6.21911 7.30401 4.6154C7.99237 3.44837 9.00852 2.77343 10.3525 2.59059Z" fill="#939393"/>
<path opacity="0.943" fill-rule="evenodd" clip-rule="evenodd" d="M6.42826 11.5234C6.61069 11.5415 6.79179 11.5713 6.97156 11.6128C7.6886 12.0757 8.4331 12.4925 9.20512 12.8634C10.677 13.3717 12.0855 13.2328 13.4308 12.4465C13.7722 12.1788 14.1344 11.9405 14.5174 11.7319C15.9745 11.4019 17.212 11.789 18.2299 12.8932C19.0093 13.9159 19.4922 15.0673 19.6787 16.3473C19.8592 17.3729 19.9196 18.4052 19.8598 19.444C19.5226 21.4042 18.3455 22.4464 16.3284 22.5706C12.6661 22.6103 9.00392 22.6103 5.34167 22.5706C3.49542 22.4163 2.35852 21.4535 1.93096 19.6822C1.756 17.6808 2.05784 15.7553 2.83646 13.9056C3.58997 12.4571 4.78724 11.663 6.42826 11.5234ZM15.2418 12.8336C16.4162 12.9314 17.2512 13.5071 17.747 14.5607C18.4875 16.2644 18.7089 18.0311 18.411 19.8609C18.0306 20.7294 17.3565 21.1959 16.3887 21.2604C12.7064 21.3001 9.02402 21.3001 5.34167 21.2604C3.79927 21.0181 3.09499 20.1248 3.22884 18.5805C3.16691 16.9791 3.51905 15.4803 4.28525 14.0842C4.83123 13.2471 5.60593 12.86 6.60936 12.9229C7.51854 13.5897 8.52467 14.0661 9.62769 14.3522C11.1346 14.6425 12.5633 14.4242 13.9137 13.6971C14.35 13.3931 14.7927 13.1052 15.2418 12.8336Z" fill="#939393"/>
</svg>
