<svg width="22" height="22" viewBox="0 0 22 22" fill="none" xmlns="http://www.w3.org/2000/svg">
<path d="M19.25 21.3125H2.75C1.625 21.3125 0.6875 20.375 0.6875 19.25V4.10937C0.6875 2.98437 1.4375 2.04688 2.42188 2.04688H3.45312V3.40625H2.42188C2.28125 3.40625 2.09375 3.6875 2.09375 4.10937V19.25C2.09375 19.625 2.42188 19.9531 2.79688 19.9531H19.2969C19.6719 19.9531 20 19.625 20 19.25V4.10937C20 3.6875 19.7656 3.40625 19.6719 3.40625H18.6406V2.04688H19.6719C20.6094 2.04688 21.4062 2.98437 21.4062 4.10937V19.25C21.3125 20.375 20.375 21.3125 19.25 21.3125Z" fill="#939393"/>
<path d="M5.51562 4.8125C5.14062 4.8125 4.8125 4.48437 4.8125 4.10937V1.34375C4.8125 0.96875 5.14062 0.640625 5.51562 0.640625C5.89062 0.640625 6.21875 0.96875 6.21875 1.34375V4.10937C6.17188 4.48437 5.89062 4.8125 5.51562 4.8125Z" fill="#939393"/>
<path d="M16.4844 4.8125C16.1094 4.8125 15.7812 4.48437 15.7812 4.10937V1.34375C15.7812 0.96875 16.1094 0.640625 16.4844 0.640625C16.8594 0.640625 17.1875 0.96875 17.1875 1.34375V4.10937C17.1875 4.48437 16.8594 4.8125 16.4844 4.8125Z" fill="#939393"/>
<path d="M7.57812 2.04688H14.4219V3.45312H7.57812V2.04688Z" fill="#939393"/>
<path d="M2.04688 6.17188H19.9531V7.57812H2.04688V6.17188Z" fill="#939393"/>
<path d="M17.1875 8.9375H18.5469V10.2969H17.1875V8.9375Z" fill="#939393"/>
<path d="M14.4219 8.9375H15.8281V10.2969H14.4219V8.9375Z" fill="#939393"/>
<path d="M11.7031 8.9375H13.0625V10.2969H11.7031V8.9375Z" fill="#939393"/>
<path d="M8.9375 8.9375H10.2969V10.2969H8.9375V8.9375Z" fill="#939393"/>
<path d="M6.17188 8.9375H7.57812V10.2969H6.17188V8.9375Z" fill="#939393"/>
<path d="M17.1875 11.7031H18.5469V13.0625H17.1875V11.7031Z" fill="#939393"/>
<path d="M14.4219 11.7031H15.8281V13.0625H14.4219V11.7031Z" fill="#939393"/>
<path d="M11.7031 11.7031H13.0625V13.0625H11.7031V11.7031Z" fill="#939393"/>
<path d="M8.9375 11.7031H10.2969V13.0625H8.9375V11.7031Z" fill="#939393"/>
<path d="M6.17188 11.7031H7.57812V13.0625H6.17188V11.7031Z" fill="#939393"/>
<path d="M3.45312 11.7031H4.8125V13.0625H3.45312V11.7031Z" fill="#939393"/>
<path d="M17.1875 14.4219H18.5469V15.8281H17.1875V14.4219Z" fill="#939393"/>
<path d="M14.4219 14.4219H15.8281V15.8281H14.4219V14.4219Z" fill="#939393"/>
<path d="M11.7031 14.4219H13.0625V15.8281H11.7031V14.4219Z" fill="#939393"/>
<path d="M8.9375 14.4219H10.2969V15.8281H8.9375V14.4219Z" fill="#939393"/>
<path d="M6.17188 14.4219H7.57812V15.8281H6.17188V14.4219Z" fill="#939393"/>
<path d="M3.45312 14.4219H4.8125V15.8281H3.45312V14.4219Z" fill="#939393"/>
<path d="M14.4219 17.1875H15.8281V18.5469H14.4219V17.1875Z" fill="#939393"/>
<path d="M11.7031 17.1875H13.0625V18.5469H11.7031V17.1875Z" fill="#939393"/>
<path d="M8.9375 17.1875H10.2969V18.5469H8.9375V17.1875Z" fill="#939393"/>
<path d="M6.17188 17.1875H7.57812V18.5469H6.17188V17.1875Z" fill="#939393"/>
<path d="M3.45312 17.1875H4.8125V18.5469H3.45312V17.1875Z" fill="#939393"/>
</svg>
