<svg width="18" height="20" viewBox="0 0 18 20" fill="none" xmlns="http://www.w3.org/2000/svg">
<path d="M8.99978 19.7501C8.90108 19.7506 8.80323 19.7317 8.71185 19.6944C8.62048 19.6571 8.53736 19.6021 8.46728 19.5326L3.16478 14.2826C2.39923 13.5221 1.79166 12.6176 1.37707 11.6214C0.962467 10.6251 0.749023 9.55667 0.749023 8.47757C0.749023 7.39848 0.962467 6.33004 1.37707 5.33377C1.79166 4.33751 2.39923 3.43308 3.16478 2.67258C4.71881 1.13731 6.81529 0.276367 8.99978 0.276367C11.1843 0.276367 13.2808 1.13731 14.8348 2.67258C15.6003 3.43308 16.2079 4.33751 16.6225 5.33377C17.0371 6.33004 17.2505 7.39848 17.2505 8.47757C17.2505 9.55667 17.0371 10.6251 16.6225 11.6214C16.2079 12.6176 15.6003 13.5221 14.8348 14.2826L9.53228 19.5326C9.4622 19.6021 9.37909 19.6571 9.28771 19.6944C9.19634 19.7317 9.09849 19.7506 8.99978 19.7501ZM8.99978 1.75008C7.20973 1.74568 5.49123 2.4525 4.22228 3.71508C3.59732 4.33614 3.10135 5.07466 2.7629 5.88814C2.42446 6.70162 2.25022 7.574 2.25022 8.45507C2.25022 9.33615 2.42446 10.2085 2.7629 11.022C3.10135 11.8355 3.59732 12.574 4.22228 13.1951L8.99978 17.9426L13.7773 13.1951C14.4022 12.574 14.8982 11.8355 15.2367 11.022C15.5751 10.2085 15.7493 9.33615 15.7493 8.45507C15.7493 7.574 15.5751 6.70162 15.2367 5.88814C14.8982 5.07466 14.4022 4.33614 13.7773 3.71508C12.5083 2.4525 10.7898 1.74568 8.99978 1.75008Z" fill="#618EDF"/>
<path d="M9 12.25C8.25832 12.25 7.5333 12.0301 6.91661 11.618C6.29993 11.206 5.81928 10.6203 5.53545 9.93506C5.25162 9.24984 5.17736 8.49584 5.32206 7.76841C5.46675 7.04098 5.8239 6.3728 6.34835 5.84835C6.8728 5.3239 7.54098 4.96675 8.26841 4.82206C8.99584 4.67736 9.74984 4.75162 10.4351 5.03545C11.1203 5.31928 11.706 5.79993 12.118 6.41661C12.5301 7.0333 12.75 7.75832 12.75 8.5C12.75 9.49456 12.3549 10.4484 11.6517 11.1517C10.9484 11.8549 9.99456 12.25 9 12.25ZM9 6.25C8.55499 6.25 8.11998 6.38196 7.74997 6.6292C7.37996 6.87643 7.09157 7.22783 6.92127 7.63896C6.75098 8.0501 6.70642 8.5025 6.79323 8.93896C6.88005 9.37541 7.09434 9.77632 7.40901 10.091C7.72368 10.4057 8.12459 10.62 8.56105 10.7068C8.99751 10.7936 9.44991 10.749 9.86104 10.5787C10.2722 10.4084 10.6236 10.12 10.8708 9.75004C11.118 9.38002 11.25 8.94501 11.25 8.5C11.25 7.90326 11.0129 7.33097 10.591 6.90901C10.169 6.48705 9.59674 6.25 9 6.25Z" fill="#618EDF"/>
</svg>
