<svg width="28" height="19" viewBox="0 0 28 19" fill="none" xmlns="http://www.w3.org/2000/svg">
<path d="M12.672 15.984C11.456 17.568 9.752 18.36 7.56 18.36C5.368 18.36 3.656 17.568 2.424 15.984C1.208 14.384 0.6 12.256 0.6 9.6C0.6 6.944 1.208 4.824 2.424 3.24C3.656 1.64 5.368 0.839999 7.56 0.839999C9.752 0.839999 11.456 1.64 12.672 3.24C13.904 4.824 14.52 6.944 14.52 9.6C14.52 12.256 13.904 14.384 12.672 15.984ZM4.896 9.6C4.896 12.656 5.784 14.184 7.56 14.184C9.336 14.184 10.224 12.656 10.224 9.6C10.224 6.544 9.336 5.016 7.56 5.016C5.784 5.016 4.896 6.544 4.896 9.6ZM27.5732 7.704V11.496H23.7332V15.336H19.9412V11.496H16.1012V7.704H19.9412V3.864H23.7332V7.704H27.5732Z" fill="#A9A9A9"/>
</svg>
