<svg width="16" height="16" viewBox="0 0 16 16" fill="none" xmlns="http://www.w3.org/2000/svg">
<path d="M15.928 12.7528L15.8484 12.5128C15.6598 11.9522 15.0415 11.3675 14.4736 11.2135L12.3715 10.6392C11.8015 10.4841 10.9883 10.6927 10.5712 11.1097L9.81047 11.8705C7.04566 11.1234 4.87761 8.95529 4.13152 6.19101L4.89233 5.4302C5.3094 5.01313 5.5179 4.20105 5.36282 3.63101L4.78962 1.52791C4.63454 0.958907 4.04877 0.340677 3.48922 0.154139L3.24926 0.0734608C2.68864 -0.113078 1.8891 0.0755733 1.47207 0.492611L0.334058 1.63166C0.130753 1.83389 0.000816572 2.41232 0.000816572 2.41443C-0.0389859 6.0275 1.37774 9.50853 3.93348 12.0643C6.48296 14.6138 9.95094 16.0284 13.5535 15.998C13.5724 15.998 14.1676 15.8702 14.3709 15.6679L15.5089 14.5299C15.9259 14.1129 16.1145 13.3134 15.928 12.7528Z" fill="#618EDF"/>
</svg>
