<svg width="40" height="40" viewBox="0 0 40 40" fill="none" xmlns="http://www.w3.org/2000/svg">
<circle cx="20" cy="20" r="20" fill="#3E3E3E"/>
<path d="M18.672 26.984C17.456 28.568 15.752 29.36 13.56 29.36C11.368 29.36 9.656 28.568 8.424 26.984C7.208 25.384 6.6 23.256 6.6 20.6C6.6 17.944 7.208 15.824 8.424 14.24C9.656 12.64 11.368 11.84 13.56 11.84C15.752 11.84 17.456 12.64 18.672 14.24C19.904 15.824 20.52 17.944 20.52 20.6C20.52 23.256 19.904 25.384 18.672 26.984ZM10.896 20.6C10.896 23.656 11.784 25.184 13.56 25.184C15.336 25.184 16.224 23.656 16.224 20.6C16.224 17.544 15.336 16.016 13.56 16.016C11.784 16.016 10.896 17.544 10.896 20.6ZM33.5732 18.704V22.496H29.7332V26.336H25.9412V22.496H22.1012V18.704H25.9412V14.864H29.7332V18.704H33.5732Z" fill="#A9A9A9"/>
</svg>
