<svg width="28" height="28" viewBox="0 0 28 28" fill="none" xmlns="http://www.w3.org/2000/svg">
<path d="M10.2358 2.50879C5.97345 2.50879 2.50586 5.97613 2.50586 10.2383C2.50586 12.3032 3.30979 14.2445 4.76949 15.7044C6.22943 17.1644 8.17069 17.9685 10.2358 17.9685C12.3001 17.9685 14.2411 17.1646 15.7013 15.7044C17.1617 14.2441 17.9658 12.3031 17.9658 10.2385C17.9658 5.97638 14.4983 2.50879 10.2358 2.50879ZM15.0135 15.0162C13.7371 16.2924 12.0405 16.9956 10.2358 16.9956C8.4306 16.9956 6.73348 16.2924 5.45756 15.0167C4.18163 13.7405 3.47893 12.0438 3.47893 10.2386C3.47893 6.51305 6.51038 3.48205 10.2359 3.48205C13.9616 3.48205 16.9929 6.51305 16.9929 10.2388C16.9928 12.0431 16.2901 13.7401 15.0135 15.0162Z" fill="#282828"/>
<path d="M27.0962 22.7471L21.0017 16.6527L19.9972 17.6572L18.5506 16.2111C21.4651 12.1648 21.0344 6.55852 17.4753 2.99908C15.5414 1.06511 12.9701 0 10.2353 0C10.2351 0 10.2355 0 10.2351 0C7.50079 0 4.92924 1.06511 2.99603 2.99883C-0.996072 6.99118 -0.996072 13.4867 2.99603 17.4784C6.55484 21.0381 12.1611 21.4688 16.2077 18.5541L17.6545 20.0002L16.6495 21.0056L22.7438 27.0997C23.3438 27.6997 24.1317 28 24.9199 28C25.7078 27.9996 26.4964 27.6997 27.0962 27.0997C27.6774 26.5186 27.9976 25.7459 27.9978 24.9236C27.9978 24.1015 27.6776 23.3283 27.0962 22.7471ZM26.4086 26.4116C25.5876 27.2322 24.2522 27.2322 23.4316 26.4116L18.0252 21.0057L19.5133 19.5168L18.8253 18.8287L18.342 19.3122L16.2911 17.2619L15.952 17.5288C12.2717 20.4216 6.99763 20.1044 3.68397 16.7906C0.0713177 13.1781 0.0713177 7.29968 3.68397 3.68683C5.43392 1.93669 7.76064 0.973003 10.2355 0.973003C12.7104 0.973003 15.0374 1.93695 16.7873 3.68702C20.1011 7.00106 20.4183 12.2754 17.5253 15.9557L17.2586 16.2948L19.9975 19.0332L21.0021 18.0287L26.4085 23.4347C26.806 23.8326 27.0252 24.3607 27.0252 24.9234C27.025 25.4855 26.806 26.0142 26.4086 26.4116Z" fill="#282828"/>
<path d="M24.8069 25.0361L23.4344 23.6631L22.7461 24.3511L24.1191 25.7246C24.4075 26.0126 24.744 26.0556 24.9189 26.0556C25.0941 26.0556 25.4307 26.0126 25.7196 25.7237L25.0316 25.0357C24.9697 25.0977 24.8681 25.0973 24.8069 25.0361Z" fill="#282828"/>
<path d="M6.37805 6.37981C5.34582 7.4123 4.77734 8.78267 4.77734 10.2389H5.75035C5.75035 9.04258 6.21759 7.91647 7.06631 7.06801C7.91477 6.21954 9.04044 5.7523 10.2365 5.7523H10.237V4.7793C10.237 4.7793 10.2368 4.7793 10.2365 4.7793C8.78027 4.77936 7.41009 5.34777 6.37805 6.37981Z" fill="#282828"/>
</svg>
