<svg width="20" height="20" viewBox="0 0 20 20" fill="none" xmlns="http://www.w3.org/2000/svg">
<path d="M10 0C4.47688 0 0 4.4775 0 10C0 15.5231 4.47688 20 10 20C15.5231 20 20 15.5231 20 10C20 4.4775 15.5231 0 10 0ZM10 17.5C5.8575 17.5 2.5 14.1425 2.5 10C2.5 5.85813 5.8575 2.5 10 2.5C14.1425 2.5 17.5 5.85813 17.5 10C17.5 14.1425 14.1425 17.5 10 17.5Z" fill="#9BB3DE"/>
<path d="M13.752 8.75H6.25195V11.25H13.752V8.75Z" fill="#9BB3DE"/>
<path d="M11.252 6.25H8.75195V13.7487H11.252V6.25Z" fill="#9BB3DE"/>
</svg>
