<svg width="18" height="20" viewBox="0 0 18 20" fill="none" xmlns="http://www.w3.org/2000/svg">
<path d="M16.5052 6.66667H13.1719C11.7885 6.66667 10.6719 5.55 10.6719 4.16667V0.833333C10.6719 0.366667 10.3052 0 9.83854 0H2.33854C1.42187 0 0.671875 0.75 0.671875 1.66667V18.3333C0.671875 19.25 1.42187 20 2.33854 20H15.6719C16.5885 20 17.3385 19.25 17.3385 18.3333V7.5C17.3385 7.03333 16.9719 6.66667 16.5052 6.66667ZM13.1719 16.6667H4.83854C4.37187 16.6667 4.00521 16.3 4.00521 15.8333C4.00521 15.3667 4.37187 15 4.83854 15H13.1719C13.6385 15 14.0052 15.3667 14.0052 15.8333C14.0052 16.3 13.6385 16.6667 13.1719 16.6667ZM13.1719 13.3333H4.83854C4.37187 13.3333 4.00521 12.9667 4.00521 12.5C4.00521 12.0333 4.37187 11.6667 4.83854 11.6667H13.1719C13.6385 11.6667 14.0052 12.0333 14.0052 12.5C14.0052 12.9667 13.6385 13.3333 13.1719 13.3333ZM13.1719 10H4.83854C4.37187 10 4.00521 9.63333 4.00521 9.16667C4.00521 8.7 4.37187 8.33333 4.83854 8.33333H13.1719C13.6385 8.33333 14.0052 8.7 14.0052 9.16667C14.0052 9.63333 13.6385 10 13.1719 10ZM12.3385 0.833333V3.33333C12.3385 4.25 13.0885 5 14.0052 5H16.5052C17.2552 5 17.6219 4.1 17.0885 3.58333L13.7552 0.25C13.2385 -0.283333 12.3385 0.1 12.3385 0.833333Z" fill="#9BB3DE"/>
</svg>
