<svg width="16" height="12" viewBox="0 0 16 12" fill="none" xmlns="http://www.w3.org/2000/svg">
<path d="M1.81917 10.4345C0.960834 9.52286 0.5 8.50036 0.5 6.84286C0.5 3.9262 2.5475 1.31203 5.525 0.0195312L6.26917 1.16786C3.49 2.6712 2.94667 4.62203 2.73 5.85203C3.1775 5.62036 3.76333 5.53953 4.3375 5.59286C5.84083 5.73203 7.02583 6.9662 7.02583 8.50036C7.02583 9.27391 6.71854 10.0158 6.17156 10.5628C5.62458 11.1097 4.88271 11.417 4.10917 11.417C3.215 11.417 2.36 11.0087 1.81917 10.4345ZM10.1525 10.4345C9.29417 9.52286 8.83333 8.50036 8.83333 6.84286C8.83333 3.9262 10.8808 1.31203 13.8583 0.0195312L14.6025 1.16786C11.8233 2.6712 11.28 4.62203 11.0633 5.85203C11.5108 5.62036 12.0967 5.53953 12.6708 5.59286C14.1742 5.73203 15.3592 6.9662 15.3592 8.50036C15.3592 9.27391 15.0519 10.0158 14.5049 10.5628C13.9579 11.1097 13.216 11.417 12.4425 11.417C11.5483 11.417 10.6933 11.0087 10.1525 10.4345Z" fill="#9BB3DE"/>
</svg>
