<svg width="20" height="20" viewBox="0 0 20 20" fill="none" xmlns="http://www.w3.org/2000/svg">
<path d="M5.83398 4.99967C6.055 4.99967 6.26696 4.91188 6.42324 4.7556C6.57952 4.59932 6.66732 4.38735 6.66732 4.16634C6.66732 3.94533 6.57952 3.73337 6.42324 3.57709C6.26696 3.42081 6.055 3.33301 5.83398 3.33301H4.16732C3.9463 3.33301 3.73434 3.42081 3.57806 3.57709C3.42178 3.73337 3.33398 3.94533 3.33398 4.16634V15.833C3.33398 16.054 3.42178 16.266 3.57806 16.4223C3.73434 16.5785 3.9463 16.6663 4.16732 16.6663H5.83398C6.055 16.6663 6.26696 16.5785 6.42324 16.4223C6.57952 16.266 6.66732 16.054 6.66732 15.833C6.66732 15.612 6.57952 15.4 6.42324 15.2438C6.26696 15.0875 6.055 14.9997 5.83398 14.9997H5.00065V4.99967H5.83398Z" fill="#9BB3DE"/>
<path d="M17.35 9.51654L15 6.18321C14.8726 6.00355 14.6792 5.88166 14.4621 5.84419C14.245 5.80671 14.022 5.85669 13.8417 5.98321C13.7515 6.04637 13.6748 6.12675 13.6159 6.21972C13.557 6.31268 13.5171 6.4164 13.4985 6.52486C13.4799 6.63333 13.483 6.74441 13.5076 6.85169C13.5321 6.95896 13.5777 7.06031 13.6417 7.14988L15.075 9.16654H15H8.33333C8.11232 9.16654 7.90036 9.25434 7.74408 9.41062C7.5878 9.5669 7.5 9.77886 7.5 9.99988C7.5 10.2209 7.5878 10.4329 7.74408 10.5891C7.90036 10.7454 8.11232 10.8332 8.33333 10.8332H15L13.5 12.8332C13.4343 12.9208 13.3866 13.0204 13.3594 13.1264C13.3322 13.2324 13.3262 13.3427 13.3417 13.4511C13.3572 13.5594 13.3938 13.6636 13.4496 13.7578C13.5054 13.852 13.5791 13.9342 13.6667 13.9999C13.8109 14.1081 13.9864 14.1665 14.1667 14.1665C14.296 14.1665 14.4236 14.1364 14.5393 14.0786C14.6551 14.0207 14.7557 13.9367 14.8333 13.8332L17.3333 10.4999C17.4401 10.3589 17.4992 10.1877 17.5022 10.0109C17.5052 9.83416 17.4519 9.66102 17.35 9.51654Z" fill="#9BB3DE"/>
</svg>
