<svg width="20" height="20" viewBox="0 0 20 20" fill="none" xmlns="http://www.w3.org/2000/svg">
<path d="M17.2913 5.86547V5.86668C17.4231 5.5884 17.5 5.29785 17.5 5V3.75C17.5 1.67969 14.1418 0 10 0C5.85816 0 2.5 1.67969 2.5 3.75C2.5 3.64746 2.51465 3.54734 2.53051 3.44727C0.981445 4.13332 0 5.1343 0 6.25V7.5C0 8.65969 1.05469 9.69606 2.70875 10.3833C2.57691 10.6616 2.5 10.9521 2.5 11.25V12.5C2.5 12.9395 2.65871 13.3582 2.93703 13.75C2.65871 14.1418 2.5 14.5605 2.5 15V16.25C2.5 18.3203 5.85816 20 10 20C14.1418 20 17.5 18.3203 17.5 16.25V15C17.5 14.5532 17.3352 14.1272 17.0496 13.7305C17.0471 13.7329 17.0447 13.7366 17.0422 13.739C17.2522 13.4412 17.417 13.1311 17.4695 12.8027C19.0186 12.1155 20 11.1157 20 10V8.75C20 7.59035 18.9453 6.55273 17.2913 5.86547ZM10 0.625C14.0515 0.625 16.875 2.27172 16.875 3.75C16.875 5.22707 14.0515 6.875 10 6.875C5.94848 6.875 3.125 5.22707 3.125 3.75C3.125 2.27172 5.94848 0.625 10 0.625ZM0.625 6.25C0.625 5.52 1.31715 4.75219 2.5 4.15895V5C2.5 7.07031 5.85816 8.75 10 8.75C10.6189 8.75 11.217 8.70848 11.792 8.6377C10.6457 9.07836 9.18945 9.375 7.5 9.375C3.44848 9.375 0.625 7.72707 0.625 6.25ZM16.875 15C16.875 16.477 14.0515 18.125 10 18.125C5.94848 18.125 3.125 16.477 3.125 15C3.125 14.7546 3.23 14.5056 3.3777 14.259C3.3777 14.259 3.37402 14.2554 3.37281 14.2529C4.63137 15.4407 7.12648 16.25 10 16.25C12.8772 16.25 15.3601 15.4346 16.6162 14.2444L16.6138 14.2468C16.7676 14.4971 16.875 14.7498 16.875 15ZM14.2945 13.6377C13.147 14.0796 11.6907 14.375 10 14.375C5.94848 14.375 3.125 12.727 3.125 11.25C3.125 11.0376 3.19824 10.8227 3.30934 10.6104C3.92215 10.8166 4.59961 10.979 5.32352 11.0877C6.25609 12.6282 9.115 13.75 12.5 13.75C13.1213 13.75 13.7219 13.7085 14.2993 13.6365C14.2993 13.6365 14.2969 13.6377 14.2945 13.6377ZM12.5 11.875C10.896 11.875 9.49707 11.6113 8.37644 11.2073C11.9006 10.9997 14.6838 9.58496 14.9695 7.80273C15.8203 7.42555 16.5015 6.95555 16.9397 6.4209H16.9385C18.4521 7.03613 19.375 7.91504 19.375 8.75C19.375 10.227 16.5515 11.875 12.5 11.875Z" fill="#9BB3DE"/>
</svg>
