<svg width="185" height="28" viewBox="0 0 185 28" fill="none" xmlns="http://www.w3.org/2000/svg">
<g clip-path="url(#clip0_1541_408)">
<path fill-rule="evenodd" clip-rule="evenodd" d="M25.0428 20.0234L27.8978 16.7692C30.5047 13.4541 33.3762 8.99715 30.8138 4.65038C29.5768 2.48977 27.5444 0.377744 24.1425 0.0463325C22.4637 -0.112941 20.7846 0.230826 19.5032 0.893649C17.4711 1.90024 17.1175 2.88246 16.4109 3.44745C15.041 1.667 12.6111 -0.223976 9.12086 0.0216205C5.89576 0.242674 4.08393 1.69154 2.36126 4.11027C0.549576 6.70096 0.814695 9.68468 2.14014 12.5824C2.65576 13.667 3.26338 14.5387 3.88636 15.3818L4.61923 14.6711C2.55764 11.7862 0.978566 8.33212 3.11218 4.85924C4.3495 2.8701 6.47014 0.966938 9.87175 1.05292C12.3462 1.11436 13.6716 2.07204 15.1735 3.59419C15.4387 3.84013 16.1454 5.0065 16.3223 5.06811C16.8968 5.22738 17.2942 3.41021 19.2826 2.18256C23.4359 -0.383588 28.6049 1.56866 30.3722 6.06235C32.214 10.76 27.7993 15.3529 23.8022 19.8792C24.184 19.942 24.597 19.9904 25.0428 20.0233V20.0234ZM8.63521 20.9192C9.12116 21.6067 12.5229 24.75 13.4511 25.5968L15.7484 27.7089C16.7642 28.5931 17.5155 27.2791 18.7526 26.2231L21.4475 23.7551C21.6404 23.5476 22.413 22.8274 23.0963 22.1639C22.5745 22.1627 22.0769 22.1405 21.6009 22.0999L17.648 25.8424C17.2944 26.1618 16.7642 26.6774 16.411 26.8983C16.1017 26.6283 15.8365 26.3458 15.5271 26.088C15.2181 25.818 14.953 25.5481 14.5994 25.2778L12.8323 23.6571C12.5231 23.3749 12.302 23.0925 11.9926 22.8469L8.02326 18.7978C7.85865 18.5949 7.68851 18.4065 7.44219 18.1441C6.97786 17.665 6.51383 17.103 6.06828 16.5507L5.3621 17.2792L5.7635 17.7882L6.64683 18.8564L8.63536 20.9192H8.63521Z" fill="#FD5852"/>
<path fill-rule="evenodd" clip-rule="evenodd" d="M9.79962 15.7848C9.79962 17.461 10.963 17.2967 11.992 16.7051C14.1847 15.1934 20.9413 8.62074 21.4784 8.48939C22.4181 8.35805 21.9257 10.0667 21.7916 10.6585C21.1653 13.2546 19.1962 17.6582 19.8675 19.9915C20.0017 20.55 20.6282 21.0761 21.1205 21.2404C24.4316 22.3249 30.4724 20.2217 32.8889 18.6442C30.4278 19.4986 25.3266 21.3061 22.8209 20.3203C20.3151 19.4001 23.4025 12.0718 23.9396 10.3956C24.2529 9.37682 24.6109 7.60213 23.85 6.84639C21.1653 4.02008 12.6633 16.1466 11.7236 14.142C11.2316 13.1232 12.6633 9.14663 10.605 10.3956C7.87554 12.4001 1.1635 19.0715 0 21.6021C3.13235 18.4143 5.50395 15.1608 9.57584 12.6962C10.2471 12.3346 10.2022 13.1562 10.1129 13.4191C9.97855 14.2078 9.79962 14.9638 9.79962 15.7852V15.7848Z" fill="#333333"/>
<path d="M51.0198 17.0349L55.2987 4.43662H61.7194V4.96217H61.2114C60.7473 4.96217 60.3771 5.05781 60.1007 5.25508C59.8984 5.38659 59.7355 5.60751 59.6221 5.92433C59.5431 6.14501 59.5036 6.73655 59.5036 7.69249V20.2729C59.5036 21.2525 59.5478 21.8677 59.6268 22.1125C59.7108 22.3574 59.8835 22.5666 60.1502 22.7517C60.4164 22.9307 60.7671 23.0204 61.2114 23.0204H61.7194V23.5459H53.4775V23.0204H53.9958C54.4595 23.0204 54.8298 22.9188 55.1112 22.7215C55.3037 22.5965 55.4565 22.3751 55.5751 22.0585C55.659 21.8256 55.7032 21.2283 55.7032 20.2726V6.11512L49.6429 23.5459H49.3717L43.2271 6.24065V19.693C43.2271 20.643 43.2469 21.2164 43.2815 21.4313C43.3901 21.8973 43.6123 22.2799 43.9477 22.5726C44.2834 22.8715 44.8163 23.0207 45.5369 23.0207V23.5462H40.1328V23.0207H40.2909C40.6462 23.0329 40.9768 22.9668 41.2728 22.8174C41.5739 22.6739 41.8009 22.4772 41.954 22.2321C42.1068 21.9868 42.2303 21.6465 42.3143 21.1984C42.3342 21.109 42.3439 20.6311 42.3439 19.765V7.69249C42.3439 6.72485 42.2996 6.1211 42.2155 5.87626C42.1268 5.6374 41.9539 5.42818 41.6927 5.23714C41.4311 5.05208 41.0807 4.96217 40.6366 4.96217H40.133V4.43662H46.5784L51.0201 17.0349H51.0198ZM76.848 5.53553V13.3253H77.1689C78.1703 13.3253 78.896 12.9427 79.345 12.1783C79.7942 11.4136 80.0806 10.2908 80.2039 8.80934H80.6529V18.821H80.2039C80.1101 17.7221 79.9127 16.8257 79.6117 16.1331C79.3106 15.4399 78.9651 14.9739 78.5704 14.7348C78.1758 14.4959 77.6031 14.3766 76.848 14.3766V19.7468C76.848 20.8099 76.8873 21.4552 76.9565 21.6881C77.0304 21.921 77.1689 22.1183 77.3709 22.2675C77.5736 22.4229 77.899 22.4944 78.3531 22.4944H79.296C80.7665 22.4944 81.9512 22.0821 82.8443 21.252C83.7326 20.4213 84.3742 19.1673 84.7592 17.4706H85.1934L84.468 23.5457H70.8367V23.0202H71.355C71.8189 23.0202 72.189 22.9185 72.4701 22.7213C72.6724 22.5962 72.8255 22.3748 72.9341 22.0582C73.0177 21.8254 73.0624 21.2281 73.0624 20.2724V7.70968C73.0624 6.84366 73.0426 6.31214 73.0033 6.11487C72.929 5.78634 72.7813 5.53503 72.5689 5.36217C72.273 5.09343 71.8682 4.96167 71.355 4.96167H70.8367V4.43613H84.0485V10.0873H83.6044C83.3823 8.71319 83.0663 7.72164 82.6568 7.11863C82.247 6.52136 81.6696 6.079 80.9297 5.7983C80.4952 5.6252 79.6812 5.53528 78.4867 5.53528H76.8482L76.848 5.53553ZM94.7897 23.5459V23.0204H95.3079C95.762 23.0204 96.1122 22.9305 96.354 22.7574C96.601 22.584 96.7837 22.3511 96.8973 22.0585C96.966 21.8615 97.0006 21.2642 97.0006 20.2726V7.70993C97.0006 6.73033 96.9564 6.1211 96.8774 5.87601C96.7934 5.63715 96.6256 5.42793 96.3642 5.23689C96.1026 5.05183 95.7522 4.96192 95.3081 4.96192H94.7899V4.43637H101.842C103.733 4.43637 105.252 4.74721 106.398 5.38036C107.805 6.13903 108.87 7.28576 109.591 8.82702C110.316 10.3683 110.676 12.1068 110.676 14.0421C110.676 15.398 110.499 16.6404 110.143 17.7697C109.788 18.9047 109.324 19.8365 108.761 20.5713C108.2 21.306 107.543 21.8973 106.802 22.3394C106.062 22.7813 105.154 23.1278 104.083 23.3728C103.614 23.4864 102.865 23.5459 101.842 23.5459H94.7901H94.7897ZM100.801 5.51784V20.4278C100.801 21.2221 100.835 21.706 100.895 21.8854C100.958 22.0585 101.063 22.1897 101.206 22.2854C101.418 22.4229 101.723 22.4944 102.118 22.4944C103.411 22.4944 104.398 21.9626 105.08 20.9055C106.017 19.4537 106.487 17.208 106.487 14.1674C106.487 11.7123 106.165 9.75282 105.529 8.28329C105.021 7.14254 104.369 6.36594 103.579 5.95945C103.017 5.66679 102.094 5.5176 100.801 5.5176V5.51784ZM129.812 18.1042H124.231L123.564 19.974C123.352 20.5952 123.248 21.103 123.248 21.4973C123.248 22.0348 123.425 22.4291 123.781 22.6861C123.993 22.8413 124.512 22.9487 125.33 23.0207V23.5462H120.079V23.0207C120.647 22.9133 121.116 22.6323 121.476 22.1726C121.837 21.7123 122.286 20.7509 122.828 19.2933L128.465 4.04857H128.696L134.382 19.7115C134.929 21.193 135.378 22.131 135.724 22.513C135.986 22.8059 136.357 22.9728 136.839 23.0209V23.5464H129.205V23.0209H129.521C130.128 23.0209 130.557 22.9193 130.809 22.722C130.982 22.5728 131.071 22.3516 131.071 22.059C131.071 21.8976 131.046 21.7245 130.997 21.5511C130.977 21.4557 130.863 21.1033 130.652 20.4821L129.812 18.1045V18.1042ZM129.407 17.0708L127.064 10.4878L124.635 17.0708H129.407ZM151.647 14.8486V20.183C151.647 21.2221 151.702 21.8797 151.805 22.1482C151.914 22.4169 152.097 22.6259 152.358 22.7873C152.619 22.9427 153.108 23.0204 153.833 23.0204V23.5459H145.765V23.0204C146.485 23.0204 146.978 22.9367 147.24 22.7756C147.497 22.6142 147.684 22.399 147.788 22.1364C147.897 21.8734 147.946 21.2223 147.946 20.183V7.79362C147.946 6.75449 147.897 6.10889 147.788 5.84637C147.684 5.58335 147.497 5.36865 147.23 5.20725C146.964 5.04013 146.475 4.96192 145.765 4.96192V4.43637H153.094C155.004 4.43637 156.4 4.59777 157.278 4.91409C158.162 5.23689 158.882 5.82819 159.44 6.68226C160.002 7.54255 160.28 8.54607 160.28 9.705C160.28 11.115 159.86 12.2797 159.02 13.2055C158.493 13.7853 157.748 14.2212 156.78 14.5138L160.57 20.971C161.069 21.8136 161.429 22.3392 161.641 22.5482C161.957 22.8408 162.323 22.996 162.737 23.0202V23.5457H157.762L152.688 14.8483H151.647V14.8486ZM151.647 5.46978V13.8331H152.314C153.395 13.8331 154.199 13.7136 154.737 13.4745C155.27 13.2356 155.689 12.8052 155.995 12.1783C156.296 11.5571 156.449 10.7386 156.449 9.73538C156.449 8.27781 156.168 7.20257 155.611 6.50965C155.053 5.81648 154.145 5.47002 152.892 5.47002H151.647V5.46978ZM181.932 4.0005L182.061 10.3683H181.582C181.36 8.76749 180.812 7.48352 179.929 6.51538C179.045 5.54773 178.092 5.06404 177.072 5.06404C176.282 5.06404 175.655 5.32083 175.191 5.83441C174.732 6.34825 174.5 6.93955 174.5 7.60258C174.5 8.02052 174.578 8.39712 174.746 8.72564C174.964 9.1675 175.329 9.60362 175.828 10.0338C176.198 10.3503 177.032 10.8998 178.344 11.6824C180.195 12.7758 181.444 13.8152 182.091 14.7945C182.727 15.7744 183.043 16.8972 183.043 18.1578C183.043 19.7526 182.53 21.1265 181.503 22.2794C180.476 23.4264 179.169 24 177.579 24C177.086 24 176.618 23.94 176.178 23.8149C175.734 23.6954 175.176 23.4623 174.515 23.1277C174.14 22.9367 173.829 22.8473 173.587 22.8473C173.385 22.8473 173.172 22.9367 172.95 23.1277C172.728 23.3128 172.546 23.5997 172.403 23.9818H171.968V16.7717H172.403C172.749 18.8029 173.409 20.3499 174.381 21.4134C175.359 22.4707 176.4 23.0022 177.521 23.0022C178.389 23.0022 179.08 22.7155 179.602 22.1479C180.121 21.5748 180.383 20.9118 180.383 20.1531C180.383 19.6928 180.284 19.2569 180.082 18.8387C179.88 18.4203 179.578 18.0203 179.174 17.6377C178.774 17.2614 178.063 16.7597 177.042 16.1445C175.606 15.2902 174.574 14.5676 173.943 13.9641C173.311 13.3609 172.828 12.6916 172.492 11.9509C172.151 11.2104 171.984 10.3917 171.984 9.49005C171.984 7.97843 172.447 6.68226 173.37 5.60701C174.297 4.53177 175.458 4.00025 176.854 4.00025C177.378 4.00025 177.871 4.07198 178.344 4.22715C178.71 4.34048 179.159 4.54995 179.683 4.85457C180.205 5.15918 180.576 5.30812 180.787 5.30812C180.99 5.30812 181.148 5.23664 181.266 5.09318C181.38 4.94398 181.488 4.57934 181.582 4H181.932V4.0005Z" fill="#333333"/>
</g>
<defs>
<clipPath id="clip0_1541_408">
<rect width="185" height="28" fill="white"/>
</clipPath>
</defs>
</svg>
