<svg width="20" height="20" viewBox="0 0 20 20" fill="none" xmlns="http://www.w3.org/2000/svg">
<path d="M18.0233 0.333008H5.31C4.22 0.333008 3.33333 1.21967 3.33333 2.30967V4.99967H1.97667C0.886667 4.99967 0 5.88634 0 6.97601V14.023C0 15.113 0.886667 15.9997 1.97667 15.9997H4L3.5 19.2993C3.5 19.437 3.75186 19.644 4.21333 19.644C4 19.7993 4.293 19.6663 4.33333 19.6663C4.42533 19.6663 4.51567 19.628 4.58 19.5573L7.814 15.9997H14.69C15.78 15.9997 16.6667 15.113 16.6667 14.0233V11.333H18.0233C19.1133 11.333 20 10.4463 20 9.35634V2.30967C20 1.21967 19.1133 0.333008 18.0233 0.333008ZM16 14.0233C16 14.7453 15.4123 15.333 14.69 15.333H7.66667C7.57267 15.333 7.483 15.3727 7.42 15.442L4.66667 18.471V15.6663C4.66667 15.4823 4.51767 15.333 4.33333 15.333H1.97667C1.25433 15.333 0.666667 14.7453 0.666667 14.023V6.97601C0.666667 6.25401 1.25433 5.66634 1.97667 5.66634H3.66667H14.69C15.4123 5.66634 16 6.25401 16 6.97634V10.9997V14.0233ZM19.3333 9.35634C19.3333 10.0787 18.7457 10.6663 18.0233 10.6663H16.6667V6.97634C16.6667 5.88634 15.78 4.99967 14.69 4.99967H4V2.30967C4 1.58734 4.58767 0.999674 5.31 0.999674H18.0233C18.7457 0.999674 19.3333 1.58734 19.3333 2.30967V9.35634Z" fill="#9BB3DE"/>
</svg>
