<svg width="20" height="20" viewBox="0 0 20 20" fill="none" xmlns="http://www.w3.org/2000/svg">
<path d="M19.5208 3.22395L17.0286 0.719925C16.6836 0.371656 15.9984 0.493361 15.5025 0.986974L13.2173 3.26443L10.0735 0H0.28125V20H15.6876V8.29486L19.25 4.74678C19.7421 4.25317 19.8671 3.57021 19.5208 3.22395ZM10.3358 2.60938L12.0676 4.40957L11.1196 5.35481H10.3358V2.60938ZM10.6959 12.3049L7.24816 13.7007L6.50786 12.9559L7.91628 9.51318L10.6959 12.3049ZM14.0649 18.3788H1.9024V1.62115H9.11976V6.57036H9.89979L8.97593 7.48969H3.63344V8.30014H8.16397L7.43147 9.02811L6.68539 10.8545H3.63344V11.6657H6.35473L5.30916 14.219H3.63319V15.0289H12.3382V14.219H7.6437L11.1754 12.7882L12.3017 11.6657H12.3369V11.6305L14.0634 9.91098V18.3791H14.0649V18.3788Z" fill="white"/>
</svg>
