<svg width="20" height="20" viewBox="0 0 20 20" fill="none" xmlns="http://www.w3.org/2000/svg">
<g clip-path="url(#clip0_1119_3759)">
<path d="M17.6562 2.08352e-06H2.34375C1.72215 2.08352e-06 1.12601 0.246932 0.686468 0.686471C0.24693 1.12601 0 1.72215 0 2.34375L0 12.4328C0 13.0544 0.24693 13.6506 0.686468 14.0901C1.12601 14.5296 1.72215 14.7766 2.34375 14.7766H5.98125C6.02269 14.7766 6.06243 14.793 6.09174 14.8223C6.12104 14.8516 6.1375 14.8914 6.1375 14.9328V18.9063C6.13748 19.1226 6.20162 19.3341 6.32181 19.5139C6.44199 19.6938 6.61281 19.834 6.81268 19.9168C7.01255 19.9996 7.23247 20.0213 7.44465 19.9791C7.65683 19.9369 7.85172 19.8327 8.00469 19.6797L12.8609 14.8234C12.8755 14.809 12.8929 14.7975 12.9119 14.7897C12.9309 14.7819 12.9513 14.778 12.9719 14.7781H17.6594C18.281 14.7781 18.8771 14.5312 19.3167 14.0917C19.7562 13.6521 20.0031 13.056 20.0031 12.4344V2.34375C20.0031 2.0357 19.9424 1.73068 19.8244 1.44612C19.7064 1.16155 19.5335 0.903043 19.3156 0.685365C19.0976 0.467687 18.8388 0.295112 18.5541 0.177512C18.2694 0.0599112 17.9643 -0.000408648 17.6562 2.08352e-06ZM19.0625 12.4328C19.0625 12.8058 18.9143 13.1635 18.6506 13.4272C18.3869 13.6909 18.0292 13.8391 17.6562 13.8391H12.9688C12.6798 13.837 12.4017 13.9493 12.1953 14.1516L7.34375 19.0156C7.3219 19.0377 7.29397 19.0527 7.26354 19.0588C7.23311 19.0649 7.20156 19.0618 7.17289 19.0499C7.14423 19.038 7.11976 19.0178 7.1026 18.992C7.08545 18.9661 7.07638 18.9357 7.07656 18.9047V14.9328C7.07656 14.6427 6.96133 14.3645 6.75621 14.1594C6.55109 13.9543 6.27289 13.8391 5.98281 13.8391H2.34375C1.97079 13.8391 1.6131 13.6909 1.34938 13.4272C1.08566 13.1635 0.9375 12.8058 0.9375 12.4328V2.34375C0.9375 1.97079 1.08566 1.61311 1.34938 1.34938C1.6131 1.08566 1.97079 0.937502 2.34375 0.937502H17.6562C18.0292 0.937502 18.3869 1.08566 18.6506 1.34938C18.9143 1.61311 19.0625 1.97079 19.0625 2.34375V12.4328Z" fill="#9BB3DE"/>
<path d="M17.2734 0.500002H2.72655C2.13603 0.500002 1.5697 0.734585 1.15214 1.15214C0.734583 1.5697 0.5 2.13604 0.5 2.72656L0.5 12.3111C0.5 12.9016 0.734583 13.468 1.15214 13.8855C1.5697 14.3031 2.13603 14.5377 2.72655 14.5377H6.18216C6.22153 14.5377 6.25929 14.5533 6.28713 14.5812C6.31496 14.609 6.3306 14.6467 6.3306 14.6861V18.4609C6.33059 18.6664 6.39152 18.8673 6.50569 19.0382C6.61986 19.2091 6.78215 19.3423 6.97202 19.4209C7.16189 19.4996 7.37082 19.5201 7.57239 19.48C7.77396 19.4399 7.95911 19.341 8.10442 19.1956L12.7178 14.5822C12.7317 14.5685 12.7482 14.5576 12.7662 14.5502C12.7843 14.5428 12.8037 14.5391 12.8232 14.5392H17.2763C17.8669 14.5392 18.4332 14.3046 18.8507 13.887C19.2683 13.4695 19.5029 12.9031 19.5029 12.3126V2.72656C19.5029 2.43391 19.4452 2.14414 19.3331 1.8738C19.221 1.60347 19.0568 1.35789 18.8497 1.15109C18.6426 0.9443 18.3968 0.780356 18.1263 0.668635C17.8559 0.556915 17.566 0.499612 17.2734 0.500002ZM18.6093 12.3111C18.6093 12.6654 18.4686 13.0052 18.218 13.2558C17.9675 13.5063 17.6277 13.6471 17.2734 13.6471H12.8203C12.5457 13.6451 12.2816 13.7518 12.0855 13.9439L7.47653 18.5648C7.45577 18.5857 7.42925 18.6 7.40034 18.6058C7.37143 18.6116 7.34145 18.6086 7.31422 18.5973C7.28699 18.586 7.26375 18.5669 7.24745 18.5423C7.23115 18.5177 7.22254 18.4889 7.22271 18.4594V14.6861C7.22271 14.4105 7.11323 14.1463 6.91837 13.9514C6.72351 13.7565 6.45922 13.6471 6.18365 13.6471H2.72655C2.37224 13.6471 2.03244 13.5063 1.78191 13.2558C1.53137 13.0052 1.39062 12.6654 1.39062 12.3111V2.72656C1.39062 2.37224 1.53137 2.03244 1.78191 1.78191C2.03244 1.53137 2.37224 1.39062 2.72655 1.39062H17.2734C17.6277 1.39062 17.9675 1.53137 18.218 1.78191C18.4686 2.03244 18.6093 2.37224 18.6093 2.72656V12.3111Z" fill="#9BB3DE"/>
<g clip-path="url(#clip1_1119_3759)">
<path d="M6.90958 10.2173C6.48042 9.76143 6.25 9.25018 6.25 8.42143C6.25 6.9631 7.27375 5.65602 8.7625 5.00977L9.13458 5.58393C7.745 6.3356 7.47333 7.31102 7.365 7.92602C7.58875 7.81018 7.88167 7.76977 8.16875 7.79643C8.92042 7.86602 9.51292 8.4831 9.51292 9.25018C9.51292 9.63696 9.35927 10.0079 9.08578 10.2814C8.81229 10.5549 8.44136 10.7085 8.05458 10.7085C7.6075 10.7085 7.18 10.5043 6.90958 10.2173ZM11.0763 10.2173C10.6471 9.76143 10.4167 9.25018 10.4167 8.42143C10.4167 6.9631 11.4404 5.65602 12.9292 5.00977L13.3013 5.58393C11.9117 6.3356 11.64 7.31102 11.5317 7.92602C11.7554 7.81018 12.0483 7.76977 12.3354 7.79643C13.0871 7.86602 13.6796 8.4831 13.6796 9.25018C13.6796 9.63696 13.5259 10.0079 13.2524 10.2814C12.979 10.5549 12.608 10.7085 12.2213 10.7085C11.7742 10.7085 11.3467 10.5043 11.0763 10.2173Z" fill="#9BB3DE"/>
</g>
</g>
<defs>
<clipPath id="clip0_1119_3759">
<rect width="20" height="20" fill="white"/>
</clipPath>
<clipPath id="clip1_1119_3759">
<rect width="10" height="10" fill="white" transform="translate(5 3)"/>
</clipPath>
</defs>
</svg>
