<svg width="10" height="10" viewBox="0 0 10 10" fill="none" xmlns="http://www.w3.org/2000/svg">
<path d="M9.51968 7.16965L8.30968 5.94965C8.10968 5.74965 7.83968 5.62965 7.58968 5.62965C7.31968 5.62965 7.07968 5.73965 6.86968 5.94965L6.16968 6.64965C6.13968 6.62965 6.09968 6.60965 6.06968 6.59965C6.06968 6.59965 6.05968 6.59965 6.05968 6.58965L6.04968 6.57965C5.95968 6.51965 5.85968 6.45965 5.73968 6.40965C5.12968 6.02965 4.55968 5.49965 3.97968 4.78965C3.70968 4.44965 3.51968 4.14965 3.36968 3.81965C3.52968 3.68965 3.64968 3.55965 3.73968 3.45965L4.04968 3.14965C4.28968 2.92965 4.40968 2.67965 4.40968 2.41965C4.40968 2.14965 4.28968 1.89965 4.05968 1.65965L3.10968 0.709648C3.01968 0.619648 2.92968 0.529648 2.82968 0.439648C2.62968 0.249648 2.37968 0.139648 2.11968 0.139648C1.82968 0.139648 1.58968 0.239648 1.36968 0.459648L0.63968 1.18965C0.34968 1.45965 0.17968 1.79965 0.13968 2.21965V2.22965C0.11968 2.74965 0.199679 3.22965 0.419679 3.82965C0.769679 4.76965 1.29968 5.64965 2.08968 6.61965C3.11968 7.77965 4.27968 8.67965 5.56968 9.29965L5.59968 9.30965C5.97968 9.47965 6.69968 9.79965 7.49968 9.84965H7.60968C8.13968 9.84965 8.53968 9.67965 8.86968 9.31965C8.98968 9.17965 9.11968 9.04965 9.22968 8.92965C9.31968 8.85965 9.37968 8.78965 9.43968 8.71965L9.51968 8.63965L9.53968 8.61965C9.95968 8.15965 9.95968 7.59965 9.51968 7.16965ZM9.16968 8.27965L9.06968 8.37965L9.05968 8.39965C9.00968 8.45965 8.96968 8.50965 8.91968 8.54965L8.88968 8.57965C8.76968 8.69965 8.62968 8.83965 8.48968 8.99965C8.25968 9.24965 7.99968 9.35965 7.60968 9.35965H7.52968C6.82968 9.30965 6.18968 9.02965 5.80968 8.85965L5.78968 8.84965C4.55968 8.25965 3.44968 7.39965 2.47968 6.29965C1.71968 5.37965 1.21968 4.53965 0.88968 3.65965C0.68968 3.10965 0.61968 2.70965 0.63968 2.25965C0.66968 1.96965 0.77968 1.73965 0.97968 1.55965L1.71968 0.819648C1.83968 0.699648 1.95968 0.649648 2.10968 0.649648C2.23968 0.649648 2.35968 0.709648 2.46968 0.809648L2.47968 0.819648C2.56968 0.899648 2.65968 0.989648 2.74968 1.07965L3.69968 2.02965C3.87968 2.20965 3.90968 2.34965 3.90968 2.42965C3.90968 2.50965 3.88968 2.62965 3.69968 2.79965L3.37968 3.11965C3.26968 3.23965 3.13968 3.36965 2.96968 3.50965L2.94968 3.52965L2.92968 3.55965C2.83968 3.67965 2.82968 3.78965 2.87968 3.94965L2.88968 3.98965L2.89968 4.02965C3.06968 4.39965 3.27968 4.73965 3.57968 5.11965C4.19968 5.87965 4.81968 6.44965 5.47968 6.85965L5.50968 6.87965C5.58968 6.91965 5.66968 6.95965 5.73968 6.99965C5.76968 7.02965 5.80968 7.04965 5.83968 7.05965C5.87968 7.07965 5.90968 7.08965 5.92968 7.10965L5.99968 7.15965H6.01968L6.04968 7.16965C6.10968 7.18965 6.14968 7.18965 6.17968 7.18965C6.27968 7.18965 6.36968 7.14965 6.45968 7.05965L7.20968 6.30965C7.32968 6.18965 7.43968 6.13965 7.57968 6.13965C7.72968 6.13965 7.86968 6.22965 7.94968 6.30965L9.16968 7.52965C9.40968 7.76965 9.41968 8.01965 9.16968 8.27965Z" fill="black"/>
</svg>
