<svg width="18" height="20" viewBox="0 0 18 20" fill="none" xmlns="http://www.w3.org/2000/svg">
<path d="M0.666016 14.1667V2.5C0.666016 1.11917 1.78518 0 3.16602 0H14.8327C16.2135 0 17.3327 1.11917 17.3327 2.5V14.1667C17.3327 15.5475 16.2135 16.6667 14.8327 16.6667H11.4993V15H14.8327C15.2929 15 15.666 14.6269 15.666 14.1667V2.5C15.666 2.03979 15.2929 1.66667 14.8327 1.66667H3.16602C2.70581 1.66667 2.33268 2.03979 2.33268 2.5V14.1667C2.33268 14.6269 2.70581 15 3.16602 15H6.49935V16.6667H3.16602C1.78539 16.6667 0.666016 15.5475 0.666016 14.1667ZM5.07685 9.75583C5.40227 10.0812 5.92997 10.0812 6.25518 9.75583L8.16602 7.84521V19.1665V19.1667C8.16602 19.6269 8.53914 20 8.99935 20C9.45956 20 9.83268 19.6269 9.83268 19.1667V7.84521L11.7435 9.75583C12.0689 10.0812 12.5966 10.0812 12.9218 9.75583C13.2473 9.43042 13.2473 8.90271 12.9218 8.5775L9.58852 5.24417C9.43227 5.08792 9.22039 5 8.99935 5C8.77831 5 8.56643 5.08792 8.41018 5.24417L5.07685 8.5775C4.75122 8.90271 4.75122 9.43062 5.07685 9.75583Z" fill="white"/>
</svg>
