<svg width="16" height="16" viewBox="0 0 16 16" fill="none" xmlns="http://www.w3.org/2000/svg">
<path d="M4.64113 14.2613L15.6468 3.25566L12.7435 0.352539L1.73769 11.3582C1.67863 11.4054 1.63285 11.47 1.61222 11.5488L0.7566 14.7993C0.755037 14.8055 0.755037 14.8121 0.753631 14.8182C0.750818 14.831 0.7491 14.8435 0.747537 14.8568C0.746443 14.8685 0.746131 14.8797 0.746131 14.8914C0.745975 14.9035 0.746287 14.9144 0.747537 14.9266C0.7491 14.9397 0.750818 14.9525 0.753631 14.965C0.754881 14.9713 0.754881 14.9779 0.7566 14.9839C0.757693 14.9885 0.759881 14.9925 0.761443 14.9969C0.765037 15.0091 0.769725 15.021 0.774881 15.0329C0.779412 15.0433 0.783787 15.0538 0.788943 15.0635C0.794725 15.0738 0.800975 15.0833 0.80785 15.093C0.814256 15.1029 0.820818 15.1127 0.828162 15.1218C0.835506 15.131 0.843787 15.1388 0.851912 15.1471C0.860193 15.1555 0.868318 15.1635 0.877381 15.1708C0.886131 15.1783 0.895975 15.1849 0.905818 15.1913C0.915662 15.198 0.925193 15.2044 0.935818 15.21C0.945506 15.2152 0.955818 15.2197 0.966287 15.2241C0.978162 15.2293 0.989881 15.2339 1.00222 15.2377C1.0066 15.2391 1.01066 15.2413 1.01519 15.2425C1.02144 15.2441 1.02785 15.2441 1.0341 15.2457C1.04676 15.2483 1.05941 15.25 1.07254 15.2514C1.08457 15.2529 1.09566 15.2532 1.10754 15.253C1.11926 15.253 1.13051 15.2529 1.14238 15.2518C1.15551 15.25 1.16832 15.2483 1.18097 15.2457C1.18722 15.2441 1.19379 15.2441 1.19988 15.2425L4.45051 14.3871C4.52941 14.3664 4.59426 14.3207 4.64113 14.2613ZM2.06972 13.9294C1.98613 13.8458 1.87176 13.8129 1.76285 13.828L2.26019 11.9383L4.06113 13.7391L2.17113 14.2363C2.18644 14.1274 2.15363 14.013 2.06972 13.9294Z" fill="white"/>
</svg>
